<svg version="1.1" id="Layer_1" xmlns="http://www.w3.org/2000/svg"
  xmlns:xlink="http://www.w3.org/1999/xlink" x="0px" y="0px"
  width="100%" viewBox="0 0 800 800" xml:space="preserve">

  <!-- Left eyebrow -->
  <path fill="black"
      d="M 41.5 72.8 L 133.1 76.7 L 157.7 167.9 L 309.7 228.3 L 332.6 369.4 L 169.8 367.8 L 77.1 300.1 L 41.5 72.8
         M 113.8 180.3 L 114.6 200.9 L 268.6 264.2 L 268.4 244.7 L 113.8 180.3
         M 123.2 243.9 L 124.5 262.6 L 278.8 327.6 L 278.7 306 L 123.2 243.9"/>

  <!-- Left cheek -->
  <path fill="black"
      d="M 83.5 331.8 L 140.6 367.9 L 153.9 432.3 L 236.6 477 L 237.3 711.5 L 102.2 656.4 L 83.5 331.8" />

  <!-- Mouth -->
  <path fill="black"
      d="M 261.7 478.1 L 336 431.8 L 334.9 603.7 L 465.1 603.7 L 464 431.8 L 538.3 478.1 L 537 723 L 488.2 736.1 L 468.2 635.6 L 331.8 635.6 L 311.8 736.1 L 263 723 L 261.7 478.1" />

  <!-- Chin -->
  <path fill="black"
      d="M 345.1 660.6 L 454.9 660.6 L 468.4 763.2 L 331.6 763.2 L 345.1 660.6" />

  <!-- Nose -->
  <path fill="black"
      d="M 336 237.1 L 400 266 L 464 237.1 L 440.3 365.7 L 439.4 579.2 L 360.6 579.2 L 359.7 365.7 L 336 237.1" />

  <!-- Right eyebrow -->
  <path fill="black"
      d="M 758.5 72.8 L 722.9 300.1 L 630.2 367.8 L 467.4 369.4 L 490.3 228.3 L 642.3 167.9 L 666.9 76.7 L 758.5 72.8
         M 686.2 180.3 L 531.6 244.7 L 531.4 264.2 L 685.4 200.9 L 686.2 180.3
         M 676.8 243.9 L 521.3 306 L 521.2 327.6 L 675.5 262.6 L 676.8 243.9"/>

  <!-- Right cheek -->
  <path fill="black"
      d="M 716.5 331.8 L 697.8 656.4 L 562.7 711.5 L 563.4 477 L 646.1 432.3 L 659.4 367.9 L 716.5 331.8" />

  <!-- Forehead -->
  <path fill="black"
    d="M 643 95.7 L 622.4 153 L 400 241.4 L 177.6 153 L 157 95.7
       A 430 300 0 0 1 643 95.7
       M 324.1 126 L 400 169.8 L 475.9 126
       A 300 300 0 0 0 324.1 126" />


</svg>